<svg width="9" height="14" viewBox="0 0 9 14" fill="none" xmlns="http://www.w3.org/2000/svg">
<path fill-rule="evenodd" clip-rule="evenodd" d="M0 1.225C0 0.548452 0.503679 0 1.125 0H7.875C8.49632 0 9 0.548451 9 1.225V13.475C9 13.6768 8.89376 13.8608 8.72672 13.9482C8.55967 14.0356 8.36139 14.011 8.21666 13.885L4.5 10.6473L0.783335 13.885C0.63861 14.011 0.44033 14.0356 0.273284 13.9482C0.106238 13.8608 0 13.6768 0 13.475V1.225ZM1.125 1.05C1.03624 1.05 0.964286 1.12835 0.964286 1.225V12.3827L4.19881 9.56504C4.3749 9.41165 4.6251 9.41165 4.80119 9.56504L8.03571 12.3827V1.225C8.03571 1.12835 7.96376 1.05 7.875 1.05H1.125Z" fill="black"/>
<path d="M1 1H8V13L4.5 9.5L1 13V1Z" fill="black"/>
<rect y="1" width="1" height="12" fill="black"/>
<rect x="8" y="1" width="1" height="12" fill="black"/>
</svg>
