<svg width="16" height="16" viewBox="0 0 16 16" fill="none" xmlns="http://www.w3.org/2000/svg">
<path fill-rule="evenodd" clip-rule="evenodd" d="M11.0126 1.42663C11.696 0.743207 12.804 0.743209 13.4874 1.42663L14.5732 2.51242C15.2566 3.19583 15.2566 4.30387 14.5732 4.98729L5.96358 13.5969C5.75328 13.8072 5.49286 13.9604 5.2069 14.0421L1.95606 14.9709C1.69416 15.0458 1.41229 14.9727 1.21969 14.7801C1.02709 14.5875 0.954049 14.3057 1.02887 14.0438L1.95769 10.7929C2.03939 10.507 2.19262 10.2465 2.40292 10.0362L11.0126 1.42663ZM12.4268 2.48729C12.3291 2.38966 12.1708 2.38966 12.0732 2.48729L10.8106 3.74985L12.25 5.18919L13.5126 3.92663C13.6102 3.829 13.6102 3.67071 13.5126 3.57308L12.4268 2.48729ZM11.1893 6.24985L9.75002 4.81051L3.46358 11.0969C3.43354 11.1269 3.41165 11.1641 3.39997 11.205L2.84203 13.1578L4.79482 12.5998C4.83567 12.5882 4.87287 12.5663 4.90292 12.5362L11.1893 6.24985Z" fill="#24292E"/>
</svg>
