<svg width="13" height="12" viewBox="0 0 13 12" fill="none" xmlns="http://www.w3.org/2000/svg">
<path fill-rule="evenodd" clip-rule="evenodd" d="M6.50084 1.31332e-07C6.62369 -7.61234e-05 6.74411 0.0330557 6.84847 0.0956464C6.95283 0.158237 7.03695 0.247787 7.09134 0.354161L8.74262 3.58651L12.4365 4.10505C12.558 4.12208 12.6722 4.1716 12.766 4.248C12.8599 4.32439 12.9298 4.42462 12.9677 4.53735C13.0057 4.65009 13.0103 4.77083 12.9809 4.88594C12.9516 5.00104 12.8894 5.10591 12.8015 5.18871L10.1289 7.70512L10.7598 11.2569C10.7806 11.3737 10.7672 11.4939 10.7209 11.6038C10.6747 11.7137 10.5976 11.8088 10.4982 11.8785C10.3989 11.9483 10.2813 11.9898 10.1589 11.9983C10.0364 12.0069 9.91388 11.9822 9.80517 11.9271L6.50084 10.2495L3.1965 11.9271C3.08787 11.9822 2.96545 12.0068 2.84307 11.9983C2.7207 11.9897 2.60323 11.9483 2.50394 11.8787C2.40466 11.8091 2.3275 11.714 2.2812 11.6043C2.23489 11.4946 2.22127 11.3746 2.24188 11.2577L2.87361 7.70427L0.199261 5.18871C0.111138 5.10595 0.0487833 5.00101 0.019261 4.88578C-0.0102622 4.77055 -0.00577156 4.64965 0.0322222 4.53676C0.0702168 4.42387 0.140196 4.32351 0.234231 4.24706C0.328265 4.17061 0.442592 4.12112 0.564263 4.1042L4.25817 3.58651L5.91034 0.354161C5.96472 0.247787 6.04886 0.158237 6.15322 0.0956464C6.25758 0.0330557 6.37799 -7.61234e-05 6.50084 1.31332e-07ZM6.50084 2.07159L5.28562 4.44819C5.23843 4.54046 5.16874 4.62028 5.08254 4.68079C4.99634 4.74131 4.89621 4.7807 4.79076 4.79557L2.07341 5.17685L4.03882 7.0273C4.11528 7.0992 4.1725 7.18798 4.20552 7.28599C4.23853 7.38401 4.24637 7.4883 4.22834 7.58989L3.76506 10.2029L6.19462 8.96925C6.28906 8.92129 6.39415 8.8963 6.50084 8.8963C6.60753 8.8963 6.71262 8.92129 6.80706 8.96925L9.23748 10.2029L8.77245 7.58989C8.75446 7.4883 8.76227 7.38401 8.79526 7.28599C8.82834 7.18798 8.88555 7.0992 8.96197 7.0273L10.9274 5.1777L8.21092 4.79642C8.10547 4.78154 8.00534 4.74215 7.91914 4.68164C7.83294 4.62113 7.76325 4.54131 7.71605 4.44904L6.50084 2.07074V2.07159Z" fill="black"/>
</svg>
