<svg width="16" height="16" viewBox="0 0 16 16" fill="none" xmlns="http://www.w3.org/2000/svg">
<path d="M7.66817 1.61713L2.62727 2.62531L1.61908 7.66622C1.60294 7.74693 1.60698 7.83039 1.63083 7.90917C1.65468 7.98795 1.69762 8.05963 1.75582 8.11783L8.28412 14.6461C8.33055 14.6926 8.38567 14.7294 8.44633 14.7545C8.507 14.7796 8.57201 14.7926 8.63767 14.7926C8.70334 14.7926 8.76835 14.7796 8.82902 14.7545C8.88968 14.7294 8.9448 14.6926 8.99123 14.6461L14.6481 8.98927C14.6945 8.94285 14.7313 8.88773 14.7565 8.82706C14.7816 8.7664 14.7945 8.70138 14.7945 8.63572C14.7945 8.57006 14.7816 8.50504 14.7565 8.44438C14.7313 8.38372 14.6945 8.3286 14.6481 8.28217L8.11978 1.75387C8.06158 1.69566 7.9899 1.65273 7.91112 1.62888C7.83234 1.60502 7.74889 1.60099 7.66817 1.61713V1.61713Z" stroke="black" stroke-width="1.5" stroke-linecap="round" stroke-linejoin="round"/>
<path d="M5.25 5.875C5.59518 5.875 5.875 5.59518 5.875 5.25C5.875 4.90482 5.59518 4.625 5.25 4.625C4.90482 4.625 4.625 4.90482 4.625 5.25C4.625 5.59518 4.90482 5.875 5.25 5.875Z" fill="black"/>
</svg>
